<?xml version="1.0" encoding="utf-8"?>
<svg version="1.1" xmlns:xlink="http://www.w3.org/1999/xlink" width="15px" height="15px" xmlns="http://www.w3.org/2000/svg">
  <g transform="matrix(1 0 0 1 -1209 -621 )">
    <path d="M 1216.5 621  C 1220.7 621  1224 624.3  1224 628.5  C 1224 632.7  1220.7 636  1216.5 636  C 1212.3 636  1209 632.7  1209 628.5  C 1209 624.3  1212.3 621  1216.5 621  Z " fill-rule="nonzero" fill="#dad8d8" stroke="none" />
    <path d="M 1216.5 621.5  C 1220.42 621.5  1223.5 624.58  1223.5 628.5  C 1223.5 632.42  1220.42 635.5  1216.5 635.5  C 1212.58 635.5  1209.5 632.42  1209.5 628.5  C 1209.5 624.58  1212.58 621.5  1216.5 621.5  Z " stroke-width="1" stroke="#797979" fill="none" />
  </g>
</svg>