<?xml version="1.0" encoding="utf-8"?>
<svg version="1.1" xmlns:xlink="http://www.w3.org/1999/xlink" width="60px" height="30px" xmlns="http://www.w3.org/2000/svg">
  <defs>
    <mask fill="white" id="clip7">
      <path d="M 45 30  L 15 30  C 6.60000000000002 30  0 23.4  0 15  C 0 6.60000000000002  6.60000000000002 0  15 0  L 45 0  C 53.4 0  60 6.60000000000002  60 15  C 60 23.4  53.4 30  45 30  Z " fill-rule="evenodd" />
    </mask>
  </defs>
  <g transform="matrix(1 0 0 1 -364 -410 )">
    <path d="M 45 30  L 15 30  C 6.60000000000002 30  0 23.4  0 15  C 0 6.60000000000002  6.60000000000002 0  15 0  L 45 0  C 53.4 0  60 6.60000000000002  60 15  C 60 23.4  53.4 30  45 30  Z " fill-rule="nonzero" fill="#767474" stroke="none" transform="matrix(1 0 0 1 364 410 )" />
    <path d="M 45 30  L 15 30  C 6.60000000000002 30  0 23.4  0 15  C 0 6.60000000000002  6.60000000000002 0  15 0  L 45 0  C 53.4 0  60 6.60000000000002  60 15  C 60 23.4  53.4 30  45 30  Z " stroke-width="2" stroke="#797979" fill="none" transform="matrix(1 0 0 1 364 410 )" mask="url(#clip7)" />
  </g>
</svg>