<?xml version="1.0" encoding="utf-8"?>
<svg version="1.1" xmlns:xlink="http://www.w3.org/1999/xlink" width="30px" height="30px" xmlns="http://www.w3.org/2000/svg">
  <g transform="matrix(1 0 0 1 -394 -410 )">
    <path d="M 409 410  C 417.4 410  424 416.6  424 425  C 424 433.4  417.4 440  409 440  C 400.6 440  394 433.4  394 425  C 394 416.6  400.6 410  409 410  Z " fill-rule="nonzero" fill="#ffffff" stroke="none" />
    <path d="M 409 410.5  C 417.12 410.5  423.5 416.88  423.5 425  C 423.5 433.12  417.12 439.5  409 439.5  C 400.88 439.5  394.5 433.12  394.5 425  C 394.5 416.88  400.88 410.5  409 410.5  Z " stroke-width="1" stroke="#797979" fill="none" />
  </g>
</svg>