<?xml version="1.0" encoding="utf-8"?>
<svg version="1.1" xmlns:xlink="http://www.w3.org/1999/xlink" width="40px" height="40px" xmlns="http://www.w3.org/2000/svg">
  <defs>
    <mask fill="white" id="clip9">
      <path d="M 12 40  L 12 27  L 0 27  L 0 12  L 12 12  L 12 0  L 27 0  L 27 12  L 40 12  L 40 27  L 27 27  L 27 40  L 12 40  Z " fill-rule="evenodd" />
    </mask>
  </defs>
  <g transform="matrix(1 0 0 1 -224 -703 )">
    <path d="M 12 40  L 12 27  L 0 27  L 0 12  L 12 12  L 12 0  L 27 0  L 27 12  L 40 12  L 40 27  L 27 27  L 27 40  L 12 40  Z " fill-rule="nonzero" fill="#ffffff" stroke="none" transform="matrix(1 0 0 1 224 703 )" />
    <path d="M 12 40  L 12 27  L 0 27  L 0 12  L 12 12  L 12 0  L 27 0  L 27 12  L 40 12  L 40 27  L 27 27  L 27 40  L 12 40  Z " stroke-width="2" stroke="#797979" fill="none" transform="matrix(1 0 0 1 224 703 )" mask="url(#clip9)" />
  </g>
</svg>