<?xml version="1.0" encoding="utf-8"?>
<svg version="1.1" xmlns:xlink="http://www.w3.org/1999/xlink" width="150px" height="60px" xmlns="http://www.w3.org/2000/svg">
  <defs>
    <mask fill="white" id="clip107">
      <path d="M 0 55  L 0 5  C 0 2.19999999999982  2.19999999999999 0  5 0  L 138.051282051282 0  L 145 0  C 147.8 0  150 2.19999999999982  150 5  L 150 55  C 150 57.8000000000002  147.8 60  145 60  L 5 60  C 2.19999999999999 60  0 57.8000000000002  0 55  Z " fill-rule="evenodd" />
    </mask>
  </defs>
  <g transform="matrix(1 0 0 1 -205 -2419 )">
    <path d="M 0 55  L 0 5  C 0 2.19999999999982  2.19999999999999 0  5 0  L 138.051282051282 0  L 145 0  C 147.8 0  150 2.19999999999982  150 5  L 150 55  C 150 57.8000000000002  147.8 60  145 60  L 5 60  C 2.19999999999999 60  0 57.8000000000002  0 55  Z " fill-rule="nonzero" fill="#ecebeb" stroke="none" transform="matrix(1 0 0 1 205 2419 )" />
    <path d="M 0 55  L 0 5  C 0 2.19999999999982  2.19999999999999 0  5 0  L 138.051282051282 0  L 145 0  C 147.8 0  150 2.19999999999982  150 5  L 150 55  C 150 57.8000000000002  147.8 60  145 60  L 5 60  C 2.19999999999999 60  0 57.8000000000002  0 55  Z " stroke-width="2" stroke="#797979" fill="none" transform="matrix(1 0 0 1 205 2419 )" mask="url(#clip107)" />
  </g>
</svg>