<?xml version="1.0" encoding="utf-8"?>
<svg version="1.1" xmlns:xlink="http://www.w3.org/1999/xlink" width="87px" height="38px" xmlns="http://www.w3.org/2000/svg">
  <defs>
    <mask fill="white" id="clip105">
      <path d="M 0 28.7317073170732  L 0 9.26829268292683  C 0 4.07804878048778  4.11612903225804 0  9.35483870967742 0  L 37.1315136476433 0  L 77.6451612903226 0  C 82.883870967742 0  87 4.07804878048778  87 9.26829268292683  L 87 28.7317073170732  C 87 33.9219512195122  82.883870967742 38  77.6451612903226 38  L 9.35483870967742 38  C 4.11612903225804 38  0 33.9219512195122  0 28.7317073170732  Z " fill-rule="evenodd" />
    </mask>
  </defs>
  <g transform="matrix(1 0 0 1 -398 -536 )">
    <path d="M 0 28.7317073170732  L 0 9.26829268292683  C 0 4.07804878048778  4.11612903225804 0  9.35483870967742 0  L 37.1315136476433 0  L 77.6451612903226 0  C 82.883870967742 0  87 4.07804878048778  87 9.26829268292683  L 87 28.7317073170732  C 87 33.9219512195122  82.883870967742 38  77.6451612903226 38  L 9.35483870967742 38  C 4.11612903225804 38  0 33.9219512195122  0 28.7317073170732  Z " fill-rule="nonzero" fill="#d1672c" stroke="none" transform="matrix(1 0 0 1 398 536 )" />
    <path d="M 0 28.7317073170732  L 0 9.26829268292683  C 0 4.07804878048778  4.11612903225804 0  9.35483870967742 0  L 37.1315136476433 0  L 77.6451612903226 0  C 82.883870967742 0  87 4.07804878048778  87 9.26829268292683  L 87 28.7317073170732  C 87 33.9219512195122  82.883870967742 38  77.6451612903226 38  L 9.35483870967742 38  C 4.11612903225804 38  0 33.9219512195122  0 28.7317073170732  Z " stroke-width="2" stroke="#db6b16" fill="none" transform="matrix(1 0 0 1 398 536 )" mask="url(#clip105)" />
  </g>
</svg>